Patient4_TMGait_0pt6_01_right_39_EMG.mot
version=1
nRows=36
nColumns=33
inDegrees=no
endheader
time	1LAddLong	2LGlutMax	3LGlutMed	4LIliopsoas	5LSemiMemb	6LBicFemLong	7LRecFem	8LVastMed	9LVastLat	10LGasMed	11LTibAnt	12lTibPost	13LPeroneusLong	14LSol	15LExtDigLong	16LFlexDigLong	17RAddLong	18RGlutMax	19RGlutMed	20RIliopsoas	21RSemiMemb	22RBicFemLong	23RRecFem	24RVastMed	25RVastLat	26RGasMed	27RTibAnt	28RTibPost	29RPeroneusLong	30RSol	31RExtDigLong	32RFlexDigLong
46.9	-0.014801	-0.12863	-0.091248	0.015717	0.065918	-0.11551	0.35523	0.007629	-0.12268	-0.077362	0.005646	-0.027008	0.17761	0.13672	-0.17395	-0.018005	-0.007782	-0.13351	0	0.17944	0.005035	-0.010223	0.13214	0.14206	-0.014801	-0.001068	0.48737	-0.014343	0.30441	-0.14404	0.001678	-0.014648
46.901	0.011292	-0.10574	-0.11719	0.005341	0.075684	0.038757	0.35828	0.009613	-0.13367	-0.088348	0.22308	-0.026093	0.41077	0.10452	-0.27603	-0.024719	0.009155	-0.10376	-0.25757	0.20203	0.011902	-0.001221	0.17197	0.052032	-0.018616	-0.001373	-0.15289	-0.013275	-0.20615	-0.18372	0.002747	-0.005341
46.902	-0.018463	-0.084991	-0.14938	0.008698	-0.007782	0.037689	0.37216	0.010376	-0.098419	-0.064545	0.3186	-0.029755	0.60471	0.050812	0.27435	-0.013733	0.043945	-0.12192	-0.50537	0.27023	0.016479	-0.009003	0.17899	-0.03952	-0.045471	-0.002136	0.36362	-0.018158	-0.16617	-0.27039	0.001984	-0.005493
46.903	0.00412	-0.10086	-0.16357	0.001831	-0.054169	-0.036774	0.38513	0.015106	-0.081177	-0.022583	0.30106	-0.021973	0.27695	-0.039063	-0.31998	-0.014191	0.097351	-0.10239	-0.63751	0.20721	0.001678	-0.006561	0.084381	-0.096741	-0.044403	-0.011902	0.54657	-0.012054	0.00351	-0.23315	0.001831	-0.009918
46.904	-0.03479	-0.13397	-0.30655	-0.001068	-0.049896	-0.08316	0.41168	0.014038	-0.094757	-0.003967	0.28259	-0.02533	-0.14984	-0.069733	-0.44983	0.000763	0.091248	-0.090027	-0.29892	0.073242	-0.004425	-0.012817	-0.078735	-0.12436	-0.043945	-0.017242	0.21393	-0.011597	0.028839	-0.11307	-0.002594	-0.017853
46.905	-0.073853	-0.079346	-0.17548	0.003967	-0.016937	-0.1416	0.42618	0.01358	-0.085449	-0.04303	0.22644	-0.019684	-0.50034	-0.10284	-0.2562	-0.00885	0.10574	-0.021057	-0.23621	0.011749	-0.017395	-0.019226	-0.1709	-0.12222	-0.023193	-0.016937	-0.050049	-0.00824	0.14633	-0.05722	0.000763	-0.007324
46.906	0.032349	-0.085297	-0.12314	0.007324	0.09964	-0.10056	0.38788	0.014191	-0.075684	-0.013733	0.012054	-0.020599	-0.59174	-0.065155	-0.16357	-0.010681	0.11307	0.007629	-0.23972	-0.020447	-0.02594	-0.027924	-0.13931	-0.11749	-0.036469	-0.020599	-0.21027	-0.005188	0.066223	0.035858	-0.003662	0.000458
46.907	0.013275	-0.12222	0.012512	-0.006561	0.036621	-0.074158	0.38895	0.018311	-0.054932	0.023346	-0.31784	-0.010071	-0.22278	-0.11536	-0.061951	-0.007782	0.069122	-0.041656	-0.35477	-0.002594	-0.030212	-0.035706	-0.065155	-0.12497	-0.034027	-0.01236	-0.063324	-0.007629	-0.050201	0.072021	-0.002441	-0.003357
46.908	0.002441	-0.13245	-0.03479	-0.008545	-0.031891	-0.071716	0.37888	0.009155	-0.032654	0.074005	-0.14175	-0.016022	-0.20584	-0.21439	0.052338	-0.015869	-0.019989	-0.07309	0.026398	0.018005	-0.037689	-0.001984	0.049438	-0.064697	-0.027313	-0.011292	0.13199	-0.006104	-0.015869	0.12146	0.000153	-0.000458
46.909	0.005341	-0.13748	-0.06546	-0.006714	-0.079193	-0.16007	0.36423	0.007477	-0.025635	0.064545	-0.054779	-0.01358	0.46341	-0.16083	0.17029	0.001526	-0.055084	-0.090179	-0.11765	0.013885	-0.028534	0.006256	0.27329	-0.037994	-0.012207	-0.00824	-0.051575	-0.003815	0.072784	0.076294	0.001831	0.002441
46.91	0.010529	-0.15656	-0.076904	0.004425	-0.054016	-0.077209	0.36392	0.008087	-0.068817	0.046692	-0.066071	-0.021515	0.36468	-0.17151	0.1619	-0.004578	-0.077515	-0.068817	-0.32318	-0.004272	-0.025177	0.015106	0.40207	0.014343	0.006866	-0.018463	-0.12421	-0.003357	0.004425	0.014801	0.001831	-0.00885
46.911	0.010834	-0.17792	-0.096893	0.024414	0.05722	0.04364	0.3891	0.010376	-0.14389	-0.004578	-0.034485	-0.004425	-0.23483	-0.067291	0.18967	0	-0.077667	-0.066681	-0.38162	0.018463	-0.022278	0.041504	0.31708	0.071564	0.0354	-0.008698	-0.10864	-0.003204	-0.021973	-0.063171	-0.001221	-0.00473
46.912	0.005035	-0.16312	-0.071716	0.018005	0.074158	0.097504	0.43533	0.007782	-0.1683	-0.045319	-0.005341	-0.01297	-0.25818	-0.0177	0.19669	-0.011139	-0.077515	-0.032806	-0.1857	0.00824	-0.02594	0.063019	0.22919	0.054779	0.037842	0	-0.17548	-0.002899	-0.001526	-0.08606	0.000153	0.001526
46.913	0.003204	-0.13382	0.037079	0.005188	0.091553	0.15182	0.43442	0.017395	-0.19119	-0.070343	-0.017853	-0.0177	0.10941	-0.17639	0.019379	-0.009918	-0.069885	-0.046997	-0.017548	-0.036469	0.00824	0.073853	0.1268	0.070038	-0.002136	-0.001831	-0.066528	-0.000153	-0.037231	0.01358	-0.001068	-0.003052
46.914	-0.004578	-0.10117	-0.001068	0.009613	0.049438	0.21225	0.43793	0.024719	-0.25131	-0.04303	-0.001526	-0.007324	-0.3685	-0.12268	0.004883	-0.00824	-0.065155	-0.002747	0.009308	-0.063019	0.015717	0.075226	0.1889	0.030518	-0.027466	0.000153	0.090485	0.001373	-0.24521	0.005035	-0.006409	-0.009613
46.915	-0.011292	-0.10346	-0.11841	0.02533	0.027161	0.28397	0.43091	0.020294	-0.14954	0.004425	0.008087	-0.012665	-0.098877	-0.064392	0.062714	-0.001068	-0.063782	-0.002136	-0.10162	-0.12573	0.028534	0.072327	0.24262	-0.005493	-0.023956	-0.008392	0.24155	-0.002441	-0.2803	-0.06134	-0.000153	-0.012665
46.916	-0.011139	-0.064697	-0.15533	0.03006	0.007324	0.11414	0.40466	0.02121	0.07019	0.051727	-0.000916	-0.011597	0.38803	-0.23132	0.062866	-0.006409	-0.038605	0.034027	-0.015869	-0.16663	0.022583	0.065155	0.38864	-0.024567	-0.031738	-0.008087	0.32867	0	-0.40695	-0.13794	0	-0.010681
46.917	-0.002594	-0.051422	-0.16327	0.019531	0.014038	-0.23972	0.40558	0.008087	0.11124	0.059662	-0.000763	0.003204	0.065155	-0.21027	0.080414	-0.011597	-0.043335	0.026093	-0.26108	-0.1059	0.016022	0.033264	0.62439	-0.073395	-0.050201	-0.003967	0.21225	0.001984	-0.22232	-0.18601	-0.004272	-0.00885
46.918	0.005188	-0.09552	-0.12344	0.010223	0.003357	-0.16251	0.30197	0.030518	-0.057831	0.091248	0.032349	-0.005341	-0.11398	-0.080261	0.046539	-0.002747	-0.024872	0.008545	-0.24078	-0.05722	0.005035	0.034027	0.6218	-0.073853	-0.070801	0.01297	-0.040741	-0.001068	0.075989	-0.26627	0.000916	-0.005798
46.919	0.002136	-0.081177	0.03952	-0.018311	-0.041809	-0.10513	0.18219	0.027008	-0.15274	0.075836	0.069427	-0.005951	-0.31799	-0.002441	0.058136	-0.003662	0.027466	-0.005035	-0.29648	-0.004272	0.004425	0.01236	0.4538	-0.096283	-0.059509	0.007629	-0.092926	-0.002594	0.021057	-0.22049	-0.004883	-0.007019
46.92	0.00351	-0.079803	0.059662	-0.029144	-0.075073	-0.07843	0.19592	0.003357	0.020752	0.081177	0.023041	-0.009003	-0.007172	-0.033569	-0.020142	-0.004425	0.066071	-0.01236	-0.25971	0.022583	-0.004272	0.008698	0.1886	-0.07782	-0.067749	0.001831	0.054321	0	-0.44678	-0.046234	0.004883	-0.003204
46.921	0.005188	-0.026703	-0.024567	-0.006256	-0.076599	0.033112	0.36087	-0.002441	0.12726	0.061798	-0.034027	-0.18356	-0.14145	0.016327	-0.030212	0.000458	0.067902	-0.024567	-0.042114	0.050049	-0.013123	0.007172	0.10117	-0.061646	-0.025635	-0.009003	0.41443	0.000763	-0.22385	0.074768	-0.00061	-0.007629
46.922	-0.001831	-0.035553	-0.071411	0.002136	0.066986	0.029297	0.42969	0.002441	0.066833	0.079956	-0.037384	-0.12543	0.072021	-0.031128	-0.061188	-0.002136	0.050812	0.023193	0.029755	0.028992	-0.028992	0.00946	0.087128	-0.011902	-0.011902	-0.012207	0.32501	-0.000305	0.058136	0.014038	0.001984	-0.011292
46.923	-0.005646	-0.044403	-0.041046	-0.003967	0.063324	-0.003204	0.4007	0.007935	0.003204	0.11963	-0.028076	0.32822	0.076447	-0.088348	-0.063019	0.000153	0.050049	-0.005493	0.18585	-0.027313	-0.036926	0.03006	0.14313	-0.031128	-0.020752	-0.010834	0.075073	-0.000458	0.22049	0.024872	0.003052	-0.012665
46.924	0.001678	-0.023956	-0.051117	-0.010223	0.063782	-0.031738	0.30487	0.005035	-0.021057	0.090637	-0.038605	0.12299	0.1471	-0.090179	-0.001373	-0.001373	0.028687	-0.029755	-0.042267	-0.014496	-0.021362	0.018158	0.11795	-0.051117	-0.011444	-0.012512	-0.37689	-0.000458	0.084686	0.061188	0.000305	-0.00824
46.925	0.004272	-0.018616	0.026398	-0.030823	0.040588	-0.052338	0.24765	0.027618	-0.007935	0.06958	-0.027161	0.36102	0.12695	-0.042877	0.08667	-0.000458	0.007782	-0.015869	-0.090179	-0.030365	-0.014648	0.046539	-0.020905	-0.047455	0.005188	-0.010986	-0.55649	-0.002899	0.34897	0.016174	0.001678	-0.00824
46.926	0.006104	0.053406	0.13504	0.006714	0.02655	-0.009155	0.21042	0.022125	0.009613	0.04837	-0.005646	-0.35751	-0.12375	0.007019	0.049133	0.00473	-0.028839	-0.002899	-0.20691	-0.11627	-0.013275	0.052338	-0.10178	-0.029297	0.003815	-0.00351	-0.33524	-0.000305	0.5426	-0.08606	0	-0.004425
46.927	0.004883	0.033569	0.054321	0.004425	0.022125	0.044556	0.20004	0.024109	0.005035	0.032806	0.009766	-0.040588	-0.008392	0.021362	0.014343	-0.014343	-0.055084	0.009918	-0.16419	-0.18738	-0.018005	0.053864	-0.13611	0.010071	0.00351	-0.004883	0.079193	-0.004578	0.31509	-0.10056	0.003052	-0.006256
46.928	-0.003357	0.042419	0.073395	0.005035	0.023346	0.03067	0.21133	0.00885	0.005951	0.020294	0.014038	0.045319	0.039368	0.026398	-0.033875	-0.018311	-0.056458	-0.02655	0.15213	-0.2243	-0.01358	0.036926	-0.10986	0.056915	-0.007477	-0.010681	0.66467	-0.001984	0.22385	-0.13428	0.00061	-0.010681
46.929	0.004272	0.048523	0.043488	0.015259	0.018768	0.039063	0.18021	-0.005188	-0.001373	0.009613	0.014801	0.012054	-0.008087	0.079956	-0.060883	0.001831	-0.058441	0.011597	0.11307	-0.12146	-0.009003	0.040588	-0.11932	0.012054	0.004578	-0.010529	1.0304	0.000763	0.15152	-0.13672	-0.004272	-0.010223
46.93	0.001984	0.059509	-0.007324	0.031128	0.001831	0.029755	0.1384	0.000763	0.030823	0.01297	0.019531	-0.022583	-0.003357	-0.027771	-0.031128	0.010223	-0.044098	0.000305	0.030212	0.23056	-0.00885	0.044403	-0.19409	-0.021667	-0.01709	-0.007324	0.92316	-0.006104	0.04715	-0.14603	-0.000153	-0.0177
46.931	0.002289	0.10941	-0.036774	0.041046	-0.001221	0.021667	0.14358	-0.005646	0.019073	0.016022	-0.002747	-0.019379	0.10681	-0.15015	-0.021667	0.007019	-0.032654	0.02533	-0.055695	0.43625	-0.001526	0.061035	-0.23163	-0.067749	-0.037079	-0.008087	0.081482	-0.012512	-0.05722	-0.067444	-0.002136	-0.012817
46.932	0.005188	0.1297	-0.036774	0.038452	-0.001068	0.012207	0.16632	0.003815	-0.013123	0.028687	0.002289	-0.011902	0.14908	-0.10956	0.015869	0.002594	0.001526	0.040588	0.015259	0.33478	-0.019073	0.058289	-0.21927	-0.062714	-0.031586	0.003815	-0.33264	-0.011139	-0.04776	-0.083466	-0.000458	-0.00824
46.933	0.005646	0.083466	-0.063629	0.018616	0.001068	-0.049744	0.12466	0.002594	-0.020142	0.067139	0.011749	-0.011749	-0.17319	-0.021973	0.041351	-0.000916	0.020447	0.003967	0.224	0.15991	-0.072784	0.060577	-0.075378	-0.044556	-0.019684	0.006714	-0.58594	-0.007172	-0.08667	-0.15213	-0.00351	-0.001831
46.934	0.015106	0.097656	-0.061035	0.003662	0.002747	-0.094452	0.1207	0.005035	-0.016479	0.079803	0.017395	-0.012054	-0.16541	-0.06897	0.010223	0.021973	0.031891	-0.030823	0.26672	0.08728	-0.12436	0.044556	-0.095215	-0.068512	-0.024872	0.001984	-0.97809	-0.011902	-0.099335	-0.2121	-0.000153	-0.003052
46.935	0.008392	0.088501	-0.089417	0.011902	0.005798	-0.099335	0.11353	-0.003052	-0.014343	0.043793	0.025482	-0.008087	0.112	0.008392	-0.032043	0.003052	0.017548	-0.072327	0.49835	0.042267	-0.12787	0.018463	-0.12726	-0.076599	-0.014038	-0.000305	-0.7666	-0.00885	-0.095215	-0.26657	0.005493	-0.012665
